<svg width="40" height="40" viewBox="0 0 40 40" fill="none" xmlns="http://www.w3.org/2000/svg">
<g clip-path="url(#clip0_202_2509)">
<path d="M13.0296 6.66675C16.8381 6.66709 19.9987 9.98088 19.9987 14.1667C19.9987 16.5397 18.983 18.6324 17.4093 20.0001C18.983 21.3677 19.9987 23.4604 19.9987 25.8334C19.9987 30.0194 16.8381 33.3331 13.0296 33.3334H3.33203V6.66675H13.0296ZM29.0896 15.0001C33.3142 15.0001 36.6654 19.0559 36.6654 23.3334C36.6654 24.2539 35.987 25.0001 35.1502 25.0001H24.5442C24.5442 27.7616 26.5792 30.0001 29.0896 30.0001C30.7702 30.0001 32.2401 28.9973 33.0284 27.4985L35.6503 29.1684C34.3427 31.6545 31.8954 33.3334 29.0896 33.3334C24.9057 33.3334 21.5138 29.6024 21.5138 25.0001V23.3334C21.5139 19.0559 24.8651 15.0001 29.0896 15.0001ZM6.36233 21.6667V30.0001H13.0296C15.2455 29.9997 16.9684 28.0904 16.9684 25.8334C16.9684 23.5764 15.2455 21.6671 13.0296 21.6667H6.36233ZM29.0896 18.3334C27.1743 18.3334 25.4957 19.8206 24.8386 21.6667H33.3406C32.6835 19.8206 31.0049 18.3334 29.0896 18.3334ZM6.36233 18.3334H13.0296C15.2455 18.3331 16.9684 16.4238 16.9684 14.1667C16.9684 11.9097 15.2455 10.0004 13.0296 10.0001H6.36233V18.3334ZM32.1199 13.3334H26.0593V10.0001H32.1199V13.3334Z" fill="white"/>
</g>
<defs>
<clipPath id="clip0_202_2509">
<rect width="40" height="40" fill="white"/>
</clipPath>
</defs>
</svg>
