<svg width="24" height="24" viewBox="0 0 24 24" fill="none" xmlns="http://www.w3.org/2000/svg">
<g clip-path="url(#clip0_202_2480)">
<path d="M14.0645 2C14.1142 2 14.1626 2.00515 14.2097 2.01402C14.2127 2.01459 14.2158 2.01442 14.2187 2.01502C14.2336 2.01801 14.2476 2.02423 14.2621 2.02804C14.2962 2.03703 14.3304 2.04561 14.3629 2.05909C14.3933 2.07174 14.4213 2.08892 14.4496 2.10517C14.4646 2.11375 14.4806 2.12062 14.495 2.13021C14.5322 2.15504 14.5665 2.18363 14.5988 2.21434C14.6029 2.21826 14.6079 2.22134 14.6119 2.22536L19.7732 7.35357C19.9133 7.49277 20 7.68502 20 7.89744V19.1795C20 19.9275 19.7007 20.6447 19.1683 21.1737C18.636 21.7026 17.9142 22 17.1613 22H6.83871C6.08584 22 5.36401 21.7026 4.83165 21.1737C4.29929 20.6447 4 19.9275 4 19.1795V4.82051C4 4.07247 4.29929 3.35527 4.83165 2.82632C5.36401 2.29737 6.08584 2 6.83871 2H14.0645ZM6.83871 3.53846C6.49649 3.53846 6.16839 3.67363 5.92641 3.91406C5.68443 4.15449 5.54839 4.48049 5.54839 4.82051V19.1795L5.55444 19.3067C5.58385 19.6 5.71479 19.8757 5.92641 20.0859C6.16839 20.3264 6.4965 20.4615 6.83871 20.4615H17.1613C17.5035 20.4615 17.8316 20.3264 18.0736 20.0859C18.3156 19.8455 18.4516 19.5195 18.4516 19.1795V8.66667H15.0968C14.6177 8.66667 14.1583 8.47743 13.8196 8.14083C13.4808 7.80422 13.2903 7.34783 13.2903 6.8718V3.53846H6.83871ZM9.41935 10.2051C10.0353 10.2051 10.6259 10.4484 11.0615 10.8812C11.4971 11.314 11.7419 11.9008 11.7419 12.5128C11.7419 12.9377 11.3953 13.2821 10.9677 13.2821C10.5402 13.2821 10.1935 12.9377 10.1935 12.5128C10.1935 12.3088 10.1119 12.1132 9.96673 11.969C9.82154 11.8247 9.62468 11.7436 9.41935 11.7436C9.21403 11.7436 9.01716 11.8247 8.87198 11.969C8.72679 12.1132 8.64516 12.3088 8.64516 12.5128V15.5897L8.66028 15.741C8.69009 15.8887 8.7632 16.0255 8.87198 16.1336C9.01717 16.2779 9.21403 16.359 9.41935 16.359C9.62468 16.359 9.82154 16.2779 9.96673 16.1336C10.1119 15.9894 10.1935 15.7938 10.1935 15.5897C10.1935 15.1649 10.5402 14.8205 10.9677 14.8205C11.3953 14.8205 11.7419 15.1649 11.7419 15.5897C11.7419 16.2018 11.4971 16.7886 11.0615 17.2214C10.6259 17.6541 10.0353 17.8974 9.41935 17.8974C8.80337 17.8974 8.21279 17.6541 7.77722 17.2214C7.34165 16.7886 7.09677 16.2018 7.09677 15.5897V12.5128C7.09677 11.9008 7.34165 11.314 7.77722 10.8812C8.21279 10.4484 8.80337 10.2051 9.41935 10.2051ZM15.378 10.7881C15.4817 10.376 15.9018 10.1253 16.3165 10.2282C16.7313 10.3312 16.9836 10.7486 16.88 11.1607L15.3317 17.3145C15.2455 17.6569 14.9359 17.8974 14.5806 17.8974C14.2254 17.8974 13.9158 17.6569 13.8296 17.3145L12.2812 11.1607C12.1777 10.7486 12.43 10.3312 12.8448 10.2282C13.2595 10.1253 13.6796 10.376 13.7833 10.7881L14.5806 13.9571L15.378 10.7881ZM14.8387 6.8718C14.8387 6.9398 14.8659 7.005 14.9143 7.05309C14.9627 7.10117 15.0283 7.12821 15.0968 7.12821H17.3569L14.8387 4.6262V6.8718Z" fill="#242424"/>
</g>
<defs>
<clipPath id="clip0_202_2480">
<rect width="24" height="24" fill="white"/>
</clipPath>
</defs>
</svg>
