<svg width="97" height="24" viewBox="0 0 97 24" fill="none" xmlns="http://www.w3.org/2000/svg">
<g clip-path="url(#clip0_202_2502)">
<path d="M38.1643 14.0571L43.5004 20.5714H39.2868L34.5378 14.5886V20.5714H31.084V3.42857H34.5378V13.5086L38.9241 8.57143H43.3277L38.1643 14.0571ZM24.3492 8.22857C22.8141 8.25137 21.388 9.0201 20.5327 10.2857V8.57143H17.2689V20.5714H20.7227V14.9657C20.631 14.1432 20.8876 13.3199 21.4312 12.6925C21.9747 12.0652 22.7564 11.6902 23.5893 11.6571C25.5925 11.6571 25.9034 13.6114 25.9034 14.9657V20.5714H29.3571V14.2114C29.3571 10.44 28.0965 8.22857 24.4182 8.22857H24.3492ZM55.2605 14.8457C55.2737 15.097 55.2737 15.3487 55.2605 15.6H46.1943V15.72C46.4983 17.1967 47.8376 18.2356 49.3545 18.1714C50.5316 18.2222 51.6788 17.7952 52.532 16.9886L54.8288 18.7029C53.3568 20.1941 51.3179 20.9974 49.2164 20.9143C47.475 21.0236 45.7714 20.3784 44.546 19.1454C43.3205 17.9124 42.6934 16.2127 42.8269 14.4857C42.7911 12.7824 43.4702 11.141 44.7017 9.95433C45.9331 8.76767 47.606 8.14254 49.32 8.22857C52.5666 8.22857 55.2605 10.5086 55.2605 14.8457ZM52.0485 13.3714C52.0228 12.6852 51.7143 12.0395 51.1951 11.5857C50.6759 11.1319 49.9917 10.9098 49.3027 10.9714C47.7842 10.8085 46.409 11.8702 46.1943 13.3714H52.0485ZM3.45378 3.42857H0V20.5714H10.3613V17.1429H3.45378V3.42857ZM65.6218 3.42857H69.0756V20.5714H65.8118V19.3714C64.9714 20.3993 63.6904 20.9715 62.358 20.9143C60.7357 20.8729 59.2024 20.1687 58.1204 18.968C57.0384 17.7673 56.5035 16.1766 56.642 14.5714C56.4771 12.9633 57.0005 11.3605 58.0843 10.1542C59.1681 8.94786 60.7126 8.24913 62.3408 8.22857C63.5523 8.17591 64.7343 8.60824 65.6218 9.42857V3.42857ZM65.8809 14.5714C65.9908 13.7705 65.7459 12.9616 65.2095 12.3534C64.673 11.7453 63.8976 11.3976 63.0833 11.4C61.4312 11.5191 60.1794 12.9295 60.2685 14.5714C60.1794 16.2134 61.4312 17.6238 63.0833 17.7429C63.8976 17.7453 64.673 17.3976 65.2095 16.7894C65.7459 16.1813 65.9908 15.3724 65.8809 14.5714ZM13.8151 3.08571C12.6629 3.102 11.7199 4.00068 11.6565 5.14286C11.6565 6.32632 12.623 7.28571 13.8151 7.28571C15.0073 7.28571 15.9737 6.32632 15.9737 5.14286C15.9103 4.00068 14.9673 3.102 13.8151 3.08571ZM12.0882 20.5714H15.542V8.57143H12.0882V20.5714ZM96.7059 1.71429V22.2857C96.7059 23.2325 95.9327 24 94.979 24H74.2563C73.3026 24 72.5294 23.2325 72.5294 22.2857V1.71429C72.5294 0.767512 73.3026 0 74.2563 0H94.979C95.9327 0 96.7059 0.767512 96.7059 1.71429ZM79.437 8.57143H75.9832V20.5714H79.437V8.57143ZM79.8687 5.14286C79.8687 3.95939 78.9023 3 77.7101 3C76.5179 3 75.5515 3.95939 75.5515 5.14286C75.5515 6.32632 76.5179 7.28571 77.7101 7.28571C78.9023 7.28571 79.8687 6.32632 79.8687 5.14286ZM93.2521 14.2114C93.2521 10.44 91.9915 8.22857 88.3132 8.22857C86.7536 8.22876 85.2967 9.00015 84.4277 10.2857V8.57143H81.1639V20.5714H84.6176V14.9657C84.526 14.1432 84.7826 13.3199 85.3261 12.6925C85.8697 12.0652 86.6514 11.6902 87.4843 11.6571C89.4875 11.6571 89.7983 13.6114 89.7983 14.9657V20.5714H93.2521V14.2114Z" fill="#0A66C2"/>
</g>
<defs>
<clipPath id="clip0_202_2502">
<rect width="96.7059" height="24" fill="white"/>
</clipPath>
</defs>
</svg>
