<svg width="24" height="24" viewBox="0 0 24 24" fill="none" xmlns="http://www.w3.org/2000/svg">
<g clip-path="url(#clip0_202_2481)">
<path d="M5.02327 8.97698C5.44205 8.97698 5.82639 8.9752 6.137 9.01696C6.46767 9.06141 6.81702 9.16646 7.10448 9.45391C7.39192 9.74137 7.49697 10.0907 7.54143 10.4214C7.58319 10.732 7.5814 11.1163 7.5814 11.5351V19.4421C7.5814 19.8609 7.58319 20.2452 7.54143 20.5558C7.49697 20.8865 7.39193 21.2358 7.10448 21.5233C6.81702 21.8108 6.46768 21.9158 6.137 21.9603C5.82639 22.002 5.44205 22.0002 5.02327 22.0002H4.55815C4.13936 22.0002 3.75502 22.002 3.44441 21.9603C3.11374 21.9158 2.76439 21.8108 2.47694 21.5233C2.18949 21.2359 2.08444 20.8865 2.03998 20.5558C1.99822 20.2452 2.00001 19.8609 2.00001 19.4421V11.5351C2.00001 11.1163 1.99822 10.732 2.03998 10.4214C2.08444 10.0907 2.1895 9.74137 2.47694 9.45391C2.76439 9.16646 3.11374 9.06142 3.44441 9.01696C3.75502 8.9752 4.13936 8.97698 4.55815 8.97698H5.02327ZM12.3034 8.97698C12.5834 8.97698 12.8409 8.97656 13.0538 8.99606C13.2764 9.01647 13.5189 9.06296 13.7524 9.19955C13.9934 9.34056 14.1944 9.54157 14.3356 9.78276L14.3465 9.80366C15.0812 9.28461 15.9677 8.97699 16.9273 8.97698C19.4344 8.97702 21.9999 11.1113 22 13.8607L21.9991 18.9779C21.999 19.3963 22 19.7803 21.9582 20.0907C21.9137 20.4213 21.8087 20.7708 21.5213 21.0582C21.2338 21.3455 20.8844 21.4507 20.5538 21.4951C20.2434 21.5368 19.8594 21.5351 19.441 21.5351H18.9767C18.558 21.5351 18.1736 21.5369 17.863 21.4951C17.5324 21.4507 17.183 21.3457 16.8955 21.0582C16.6081 20.7707 16.503 20.4214 16.4586 20.0907C16.4168 19.7801 16.4186 19.3957 16.4186 18.977V14.7909C16.4186 14.3654 16.1037 14.0933 15.8027 14.0933C15.3216 14.0933 15.0629 14.2778 14.8852 14.5729C14.6762 14.9199 14.5582 15.4689 14.5581 16.1863V19.4421L14.5536 20.0398C14.5487 20.227 14.539 20.4006 14.5182 20.5558C14.4737 20.8865 14.3687 21.2358 14.0812 21.5233C13.7938 21.8108 13.4444 21.9158 13.1137 21.9603C12.8031 22.002 12.4188 22.0002 12 22.0002H11.5349C11.1161 22.0002 10.7318 22.002 10.4212 21.9603C10.0905 21.9158 9.74113 21.8108 9.45368 21.5233C9.16623 21.2359 9.06118 20.8865 9.01672 20.5558C8.97496 20.2452 8.97675 19.8609 8.97675 19.4421V11.5351C8.97675 11.1163 8.97496 10.732 9.01672 10.4214C9.06118 10.0907 9.16624 9.74137 9.45368 9.45391C9.74113 9.16647 10.0905 9.06142 10.4212 9.01696C10.7318 8.9752 11.1161 8.97698 11.5349 8.97698H12.3034ZM4.55815 10.3723C4.10007 10.3723 3.82665 10.3742 3.63064 10.4005C3.54083 10.4126 3.49556 10.4267 3.4753 10.435C3.47066 10.4369 3.46709 10.4386 3.46531 10.4396L3.46349 10.4405C3.46329 10.4408 3.46304 10.4414 3.46258 10.4423C3.46165 10.4441 3.45995 10.4476 3.45804 10.4523C3.4497 10.4725 3.4356 10.5178 3.42352 10.6076C3.39719 10.8036 3.39536 11.077 3.39536 11.5351V19.4421C3.39536 19.9002 3.39719 20.1736 3.42352 20.3696C3.4356 20.4594 3.4497 20.5047 3.45804 20.5249C3.45995 20.5296 3.46165 20.5331 3.46258 20.5349L3.46349 20.5368L3.46531 20.5377C3.46709 20.5386 3.47067 20.5403 3.4753 20.5422C3.49556 20.5505 3.54083 20.5646 3.63064 20.5767C3.82665 20.6031 4.10007 20.6049 4.55815 20.6049H5.02327C5.48134 20.6049 5.75477 20.6031 5.95077 20.5767C6.04058 20.5646 6.08585 20.5505 6.10611 20.5422C6.11074 20.5403 6.11432 20.5386 6.11611 20.5377L6.11792 20.5368L6.11883 20.5349C6.11976 20.5332 6.12146 20.5296 6.12337 20.5249C6.13171 20.5047 6.14582 20.4594 6.15789 20.3696C6.18422 20.1736 6.18606 19.9002 6.18606 19.4421V11.5351C6.18606 11.077 6.18422 10.8036 6.15789 10.6076C6.14582 10.5178 6.13171 10.4725 6.12337 10.4523C6.12146 10.4476 6.11977 10.4441 6.11883 10.4423L6.11792 10.4405C6.11758 10.4403 6.11696 10.44 6.11611 10.4396C6.11432 10.4386 6.11075 10.4369 6.10611 10.435C6.08585 10.4267 6.04058 10.4126 5.95077 10.4005C5.75477 10.3742 5.48134 10.3723 5.02327 10.3723H4.55815ZM11.5349 10.3723C11.0768 10.3723 10.8034 10.3742 10.6074 10.4005C10.5176 10.4126 10.4723 10.4267 10.452 10.435C10.4474 10.4369 10.4438 10.4386 10.442 10.4396L10.4402 10.4405C10.44 10.4408 10.4398 10.4414 10.4393 10.4423C10.4384 10.4441 10.4367 10.4476 10.4348 10.4523C10.4264 10.4725 10.4123 10.5178 10.4003 10.6076C10.3739 10.8036 10.3721 11.077 10.3721 11.5351V19.4421C10.3721 19.9002 10.3739 20.1736 10.4003 20.3696C10.4123 20.4594 10.4264 20.5047 10.4348 20.5249C10.4367 20.5296 10.4384 20.5331 10.4393 20.5349L10.4402 20.5368L10.442 20.5377C10.4438 20.5386 10.4474 20.5403 10.452 20.5422C10.4723 20.5505 10.5176 20.5646 10.6074 20.5767C10.8034 20.6031 11.0768 20.6049 11.5349 20.6049H12C12.4581 20.6049 12.7315 20.6031 12.9275 20.5767C13.0173 20.5646 13.0626 20.5505 13.0829 20.5422C13.0873 20.5404 13.0901 20.5386 13.0919 20.5377L13.0947 20.5368L13.0956 20.5349C13.0965 20.5332 13.0982 20.5296 13.1001 20.5249C13.1085 20.5047 13.1226 20.4594 13.1346 20.3696C13.1478 20.2717 13.1555 20.1544 13.1592 20.0044L13.1628 19.4421V16.1863C13.1628 15.3627 13.2905 14.5164 13.6897 13.8534C14.1202 13.1386 14.8329 12.6979 15.8027 12.6979C16.9524 12.6979 17.8139 13.6753 17.814 14.7909V18.977C17.814 19.435 17.8158 19.7085 17.8421 19.9045C17.8542 19.9943 17.8683 20.0396 17.8766 20.0598C17.8786 20.0645 17.8802 20.068 17.8812 20.0698C17.8816 20.0707 17.8819 20.0713 17.8821 20.0716L17.8839 20.0735C17.8857 20.0744 17.8893 20.0752 17.8939 20.0771C17.9141 20.0854 17.9594 20.0995 18.0492 20.1116C18.2453 20.1379 18.5187 20.1398 18.9767 20.1398H19.441C19.8989 20.1398 20.1725 20.1379 20.3685 20.1116C20.4578 20.0996 20.5026 20.0854 20.5229 20.0771C20.5275 20.0752 20.5311 20.0744 20.5329 20.0735C20.5338 20.073 20.5343 20.0719 20.5347 20.0716H20.5356L20.5365 20.0698C20.5375 20.068 20.5391 20.0645 20.5411 20.0598C20.5494 20.0395 20.5635 19.994 20.5756 19.9045C20.6019 19.7086 20.6036 19.4348 20.6037 18.977L20.6047 13.8607C20.6045 11.9867 18.7728 10.3724 16.9273 10.3723C15.9249 10.3723 15.0177 10.8625 14.4155 11.6541C14.2343 11.8923 13.9216 11.9886 13.6379 11.893C13.3542 11.7974 13.1628 11.5311 13.1628 11.2317C13.1627 10.9258 13.1624 10.743 13.1501 10.6085C13.1443 10.546 13.1373 10.5116 13.1328 10.495L13.131 10.4877C13.1109 10.4533 13.082 10.4243 13.0474 10.4041C13.0635 10.4135 13.051 10.3965 12.9266 10.3851C12.7921 10.3727 12.6094 10.3723 12.3034 10.3723H11.5349ZM4.79071 2.00024C6.33197 2.00024 7.5814 3.24968 7.5814 4.79094C7.5814 6.3322 6.33197 7.58164 4.79071 7.58164C3.24945 7.58163 2.00001 6.33219 2.00001 4.79094C2.00001 3.24969 3.24945 2.00025 4.79071 2.00024ZM4.79071 3.39559C4.02008 3.3956 3.39536 4.02032 3.39536 4.79094C3.39536 5.56157 4.02008 6.18628 4.79071 6.18629C5.56134 6.18629 6.18606 5.56157 6.18606 4.79094C6.18606 4.02031 5.56134 3.39559 4.79071 3.39559Z" fill="#242424"/>
</g>
<defs>
<clipPath id="clip0_202_2481">
<rect width="24" height="24" fill="white"/>
</clipPath>
</defs>
</svg>
