<svg width="40" height="40" viewBox="0 0 40 40" fill="none" xmlns="http://www.w3.org/2000/svg">
<g clip-path="url(#clip0_202_2507)">
<path d="M8.37081 14.9614C9.06879 14.9614 9.70935 14.9584 10.227 15.028C10.7782 15.1021 11.3604 15.2772 11.8395 15.7563C12.3186 16.2354 12.4937 16.8176 12.5678 17.3687C12.6374 17.8864 12.6344 18.527 12.6344 19.225V32.4032C12.6344 33.1012 12.6374 33.7418 12.5678 34.2595C12.4937 34.8106 12.3186 35.3928 11.8395 35.8719C11.3604 36.351 10.7782 36.5261 10.227 36.6002C9.70935 36.6698 9.06879 36.6668 8.37081 36.6668H7.59561C6.89763 36.6668 6.25707 36.6698 5.73939 36.6002C5.18826 36.5261 4.60602 36.351 4.12693 35.8719C3.64785 35.3928 3.47277 34.8106 3.39867 34.2595C3.32907 33.7418 3.33205 33.1012 3.33205 32.4032V19.225C3.33205 18.527 3.32907 17.8864 3.39867 17.3687C3.47277 16.8176 3.64787 16.2354 4.12693 15.7563C4.60602 15.2772 5.18827 15.1021 5.73939 15.028C6.25706 14.9584 6.89763 14.9614 7.59561 14.9614H8.37081ZM20.5044 14.9614C20.9711 14.9614 21.4002 14.9607 21.755 14.9932C22.126 15.0272 22.5302 15.1047 22.9193 15.3323C23.3209 15.5674 23.6561 15.9024 23.8913 16.3044L23.9095 16.3392C25.1341 15.4741 26.6115 14.9614 28.2109 14.9614C32.3894 14.9615 36.6652 18.5186 36.6654 23.1009L36.6638 31.6296C36.6637 32.327 36.6653 32.9669 36.5957 33.4843C36.5215 34.0353 36.3466 34.6178 35.8675 35.0967C35.3884 35.5757 34.806 35.7509 34.255 35.825C33.7376 35.8945 33.0977 35.8916 32.4003 35.8916H31.6266C30.9286 35.8916 30.2881 35.8946 29.7704 35.825C29.2193 35.7509 28.637 35.576 28.1579 35.0967C27.6789 34.6177 27.5038 34.0354 27.4297 33.4843C27.3601 32.9666 27.363 32.326 27.363 31.6281V24.6513C27.363 23.9421 26.8382 23.4885 26.3365 23.4885C25.5347 23.4885 25.1036 23.7961 24.8073 24.2879C24.459 24.8663 24.2623 25.7812 24.2623 26.9769V32.4032L24.2547 33.3995C24.2466 33.7113 24.2304 34.0008 24.1957 34.2595C24.1215 34.8106 23.9465 35.3928 23.4674 35.8719C22.9883 36.351 22.4061 36.5261 21.8549 36.6002C21.3373 36.6698 20.6967 36.6668 19.9987 36.6668H19.2235C18.5255 36.6668 17.885 36.6698 17.3673 36.6002C16.8162 36.5261 16.2339 36.351 15.7548 35.8719C15.2758 35.3928 15.1007 34.8106 15.0266 34.2595C14.957 33.7418 14.9599 33.1012 14.9599 32.4032V19.225C14.9599 18.527 14.957 17.8864 15.0266 17.3687C15.1007 16.8176 15.2758 16.2354 15.7548 15.7563C16.2339 15.2772 16.8162 15.1021 17.3673 15.028C17.885 14.9584 18.5255 14.9614 19.2235 14.9614H20.5044ZM7.59561 17.287C6.83215 17.287 6.37645 17.29 6.04977 17.3339C5.90008 17.354 5.82464 17.3776 5.79087 17.3914C5.78314 17.3946 5.77719 17.3975 5.77421 17.399L5.77118 17.4005C5.77084 17.4011 5.77043 17.4021 5.76967 17.4036C5.76811 17.4065 5.76528 17.4125 5.7621 17.4202C5.7482 17.454 5.72469 17.5294 5.70457 17.6791C5.66068 18.0058 5.65763 18.4615 5.65763 19.225V32.4032C5.65763 33.1667 5.66068 33.6224 5.70457 33.9491C5.72469 34.0988 5.74821 34.1742 5.7621 34.208C5.76528 34.2157 5.76811 34.2217 5.76967 34.2246L5.77118 34.2277L5.77421 34.2292C5.77719 34.2307 5.78314 34.2336 5.79087 34.2368C5.82463 34.2507 5.90008 34.2742 6.04977 34.2943C6.37644 34.3382 6.83215 34.3412 7.59561 34.3412H8.37081C9.13427 34.3412 9.58998 34.3382 9.91665 34.2943C10.0663 34.2742 10.1418 34.2507 10.1756 34.2368C10.1833 34.2336 10.1892 34.2307 10.1922 34.2292L10.1952 34.2277L10.1968 34.2246C10.1983 34.2217 10.2011 34.2157 10.2043 34.208C10.2182 34.1742 10.2417 34.0988 10.2619 33.9491C10.3057 33.6224 10.3088 33.1667 10.3088 32.4032V19.225C10.3088 18.4615 10.3057 18.0058 10.2619 17.6791C10.2417 17.5294 10.2182 17.454 10.2043 17.4202C10.2011 17.4125 10.1983 17.4065 10.1968 17.4036L10.1952 17.4005C10.1947 17.4002 10.1936 17.3998 10.1922 17.399C10.1892 17.3975 10.1833 17.3946 10.1756 17.3914C10.1418 17.3776 10.0663 17.354 9.91665 17.3339C9.58997 17.29 9.13426 17.287 8.37081 17.287H7.59561ZM19.2235 17.287C18.4601 17.287 18.0043 17.29 17.6777 17.3339C17.528 17.354 17.4525 17.3776 17.4188 17.3914C17.411 17.3946 17.4051 17.3975 17.4021 17.399L17.3991 17.4005C17.3987 17.4011 17.3983 17.4021 17.3976 17.4036C17.396 17.4065 17.3932 17.4125 17.39 17.4202C17.3761 17.454 17.3526 17.5294 17.3325 17.6791C17.2886 18.0058 17.2855 18.4615 17.2855 19.225V32.4032C17.2855 33.1667 17.2886 33.6224 17.3325 33.9491C17.3526 34.0988 17.3761 34.1742 17.39 34.208C17.3932 34.2157 17.396 34.2217 17.3976 34.2246L17.3991 34.2277L17.4021 34.2292C17.4051 34.2307 17.411 34.2336 17.4188 34.2368C17.4525 34.2507 17.528 34.2742 17.6777 34.2943C18.0043 34.3382 18.46 34.3412 19.2235 34.3412H19.9987C20.7622 34.3412 21.2179 34.3382 21.5446 34.2943C21.6942 34.2742 21.7697 34.2507 21.8035 34.2368C21.8109 34.2337 21.8156 34.2308 21.8186 34.2292L21.8231 34.2277L21.8247 34.2246C21.8262 34.2217 21.829 34.2157 21.8322 34.208C21.8461 34.1742 21.8696 34.0988 21.8898 33.9491C21.9117 33.7858 21.9245 33.5905 21.9306 33.3404L21.9367 32.4032V26.9769C21.9367 25.6042 22.1496 24.1938 22.8148 23.0888C23.5324 21.8974 24.7202 21.163 26.3365 21.1629C28.2528 21.1629 29.6885 22.792 29.6886 24.6513V31.6281C29.6886 32.3914 29.6917 32.8472 29.7356 33.1739C29.7557 33.3236 29.7792 33.399 29.7931 33.4328C29.7963 33.4406 29.7991 33.4465 29.8007 33.4495C29.8014 33.4509 29.8018 33.4519 29.8022 33.4525L29.8052 33.4555C29.8082 33.4571 29.8142 33.4584 29.8219 33.4616C29.8556 33.4754 29.9311 33.499 30.0808 33.5191C30.4075 33.563 30.8632 33.566 31.6266 33.566H32.4003C33.1635 33.566 33.6196 33.563 33.9461 33.5191C34.095 33.4991 34.1696 33.4755 34.2035 33.4616C34.2111 33.4584 34.2171 33.4571 34.2202 33.4555C34.2217 33.4547 34.2225 33.4529 34.2232 33.4525H34.2247L34.2262 33.4495C34.2278 33.4465 34.2306 33.4406 34.2338 33.4328C34.2477 33.3989 34.2712 33.3231 34.2913 33.1739C34.3352 32.8473 34.3381 32.391 34.3383 31.6281L34.3398 23.1009C34.3396 19.9775 31.2868 17.287 28.2109 17.287C26.5403 17.287 25.0282 18.1039 24.0246 19.4233C23.7225 19.8203 23.2013 19.9807 22.7285 19.8215C22.2557 19.6621 21.9368 19.2183 21.9367 18.7193C21.9366 18.2094 21.936 17.9048 21.9155 17.6806C21.9059 17.5764 21.8941 17.5191 21.8867 17.4914L21.8837 17.4793C21.8501 17.4219 21.802 17.3737 21.7444 17.34C21.7711 17.3556 21.7504 17.3272 21.543 17.3082C21.3189 17.2876 21.0143 17.287 20.5044 17.287H19.2235ZM7.98321 3.3335C10.552 3.3335 12.6344 5.41589 12.6344 7.98466C12.6344 10.5534 10.552 12.6358 7.98321 12.6358C5.41445 12.6358 3.33205 10.5534 3.33205 7.98466C3.33205 5.4159 5.41445 3.33351 7.98321 3.3335ZM7.98321 5.65908C6.69884 5.65909 5.65763 6.70028 5.65763 7.98466C5.65763 9.26903 6.69884 10.3102 7.98321 10.3102C9.26759 10.3102 10.3088 9.26904 10.3088 7.98466C10.3088 6.70027 9.26759 5.65908 7.98321 5.65908Z" fill="white"/>
</g>
<defs>
<clipPath id="clip0_202_2507">
<rect width="40" height="40" fill="white"/>
</clipPath>
</defs>
</svg>
